<?xml version="1.0" encoding="utf-8"?>
<!-- Generator: Adobe Illustrator 16.0.0, SVG Export Plug-In . SVG Version: 6.00 Build 0)  -->
<!DOCTYPE svg PUBLIC "-//W3C//DTD SVG 1.1//EN" "http://www.w3.org/Graphics/SVG/1.1/DTD/svg11.dtd">
<svg version="1.1" id="图层_1" xmlns="http://www.w3.org/2000/svg" xmlns:xlink="http://www.w3.org/1999/xlink" x="0px" y="0px"
	 width="16px" height="16px" viewBox="0 0 16 16" enable-background="new 0 0 16 16" xml:space="preserve">
<g>
	<polygon fill="#083255" points="1.444,11.6 1.444,13.682 2.132,13.682 2.132,12.619 2.163,12.619 3.291,13.682 4.1,13.682 
		2.847,12.531 3.988,11.6 3.212,11.6 2.157,12.438 2.132,12.438 2.132,11.6 	"/>
	<polygon fill="#083255" points="4.369,11.602 4.369,13.68 6.616,13.68 6.616,13.326 5.088,13.326 5.088,12.814 6.454,12.814 
		6.454,12.432 5.094,12.432 5.094,11.961 6.558,11.961 6.558,11.602 	"/>
	<polygon fill="#083255" points="7.127,11.6 7.127,13.684 7.801,13.684 7.801,11.971 9.021,13.684 10.061,13.684 10.061,11.6 
		9.387,11.6 9.387,13.213 8.174,11.6 	"/>
	<rect x="10.584" y="11.6" fill="#083255" width="0.742" height="2.084"/>
	<path fill="#083255" d="M13.152,11.6c0,0,1.441,0.01,1.412,1.041s-1.162,1.043-1.162,1.043h-1.551V11.6H13.152z M12.557,11.961
		v1.359h0.725c0,0,0.553-0.047,0.576-0.68s-0.576-0.68-0.576-0.68H12.557z"/>
</g>
<rect x="1" y="10.822" fill="#083255" width="14" height="0.137"/>
<path fill="#093052" d="M6.454,2.315L6.448,2.573C6.18,2.601,5.928,2.878,5.91,2.897C5.892,2.915,5.779,3.145,5.764,3.256
	C5.752,3.348,5.872,3.638,5.872,3.638l0.903,1.308v-1.81V2.315c0,0,2.196,0,3.225,0c0.395,0,4.357-0.125,4.357,4.143
	c0,3.163-3.771,3.766-3.771,3.766H6.808V6.808c0,0,0.016,0.009-0.036-0.038c-0.04-0.036-0.113,0.007-0.178,0.049
	C6.231,7.061,5.2,9.088,5.2,9.088S5.076,9.377,5.084,9.631c0.01,0.266,0.161,0.385,0.161,0.385h0.73v0.209H1.641v-0.209h0.674
	l2.883-3.551l-2.834-3.9h-0.57V2.315H6.454z M8.908,2.952V9.5c0,0,0.357,0.139,0.688,0.148c0.332,0.01,0.672-0.102,0.672-0.102
	c0.217-0.094,1.846-0.58,1.846-3.247c0-2.421-1.258-3.513-2.396-3.513C9.16,2.787,8.908,2.952,8.908,2.952z"/>
</svg>
