<?xml version="1.0" encoding="utf-8"?>
<!-- Generator: Adobe Illustrator 16.0.0, SVG Export Plug-In . SVG Version: 6.00 Build 0)  -->
<!DOCTYPE svg PUBLIC "-//W3C//DTD SVG 1.1//EN" "http://www.w3.org/Graphics/SVG/1.1/DTD/svg11.dtd">
<svg version="1.1" id="图层_1" xmlns="http://www.w3.org/2000/svg" xmlns:xlink="http://www.w3.org/1999/xlink" x="0px" y="0px"
	 width="448px" height="162px" viewBox="0 0 448 162" enable-background="new 0 0 448 162" xml:space="preserve">
<g>
	<g>
		<polygon fill="#083255" points="22.073,123.981 22.073,148.887 30.305,148.887 30.305,136.172 30.664,136.172 44.166,148.887 
			53.858,148.887 38.851,135.131 52.503,123.981 43.228,123.981 30.598,133.997 30.305,133.984 30.305,123.981 		"/>
		<polygon fill="#083255" points="57.053,123.997 57.053,148.869 83.94,148.869 83.94,144.632 65.668,144.632 65.668,138.518 
			81.995,138.518 81.995,133.932 65.738,133.932 65.738,128.304 83.246,128.304 83.246,123.997 		"/>
		<polygon fill="#083255" points="90.053,123.963 90.053,148.904 98.113,148.904 98.113,128.409 112.702,148.904 125.138,148.904 
			125.138,123.963 117.079,123.963 117.079,143.276 102.559,123.963 		"/>
		<rect x="131.391" y="123.963" fill="#083255" width="8.893" height="24.941"/>
		<path fill="#083255" d="M162.118,123.963c0,0,17.229,0.139,16.881,12.47c-0.347,12.332-13.895,12.472-13.895,12.472h-18.55
			v-24.941H162.118z M154.995,128.304v16.258h8.684c0,0,6.6-0.555,6.878-8.129c0.278-7.571-6.878-8.129-6.878-8.129H154.995z"/>
	</g>
	<rect x="16.753" y="114.689" fill="#083255" width="167.468" height="1.62"/>
	<path fill="#093052" d="M81.994,12.931l-0.073,3.081c-3.186,0.328-6.208,3.65-6.428,3.869c-0.22,0.221-1.561,2.972-1.738,4.297
		c-0.147,1.098,1.282,4.577,1.282,4.577L85.84,44.39V22.748v-9.817c0,0,26.256,0,38.56,0c4.726,0,52.146-1.497,52.146,49.548
		c0,37.835-45.115,45.042-45.115,45.042H86.243V66.654c0,0,0.175,0.125-0.44-0.44c-0.476-0.437-1.356,0.075-2.124,0.586
		c-4.346,2.893-16.68,27.137-16.68,27.137s-1.478,3.452-1.373,6.48c0.11,3.186,1.922,4.613,1.922,4.613h8.733v2.49H24.43v-2.49
		h8.056l34.495-42.477L33.072,15.902h-6.811v-2.972H81.994z M111.35,20.547v78.328c0,0,4.284,1.647,8.239,1.758
		c3.955,0.11,8.019-1.208,8.019-1.208c2.592-1.138,22.089-6.944,22.082-38.831c-0.007-28.955-15.046-42.024-28.673-42.024
		C114.371,18.569,111.35,20.547,111.35,20.547z"/>
	<g>
		<path fill="#093052" d="M216.337,63.012h5.715v8.613h-5.715v9.251l5.358-2.552c1.903,3.403,3.688,6.809,5.358,10.207V69.71h23.576
			v35.41h-8.93v-4.146h-6.072v5.742h-8.932V93.317l-6.431,3.189c-1.194-2.762-2.5-5.632-3.928-8.614v33.815h-9.288V97.145
			c-1.429,2.981-3.098,5.638-5.001,7.976c-1.909-1.914-4.527-3.933-7.858-6.062c5.95-7.656,9.762-16.692,11.431-27.115h-9.645
			v-8.932h11.074V48.337h5.358c3.093,0,4.644,0.215,4.644,0.638c0,0.43-0.123,0.957-0.357,1.596
			c-0.24,1.066-0.357,2.342-0.357,3.828V63.012z M223.481,63.012V54.08h47.152v8.932h-6.072v51.997
			c-0.24,4.466-2.74,6.804-7.502,7.02h-7.859c-0.24-0.639-0.357-1.277-0.357-1.915c-0.713-3.828-1.428-6.484-2.143-7.975h5.002
			c1.902,0,2.857-0.957,2.857-2.871V63.012H223.481z M235.627,77.367v16.269h6.072V77.367H235.627z"/>
		<path fill="#093052" d="M286.707,80.876V52.165h58.227v26.796h-47.51c0.234,19.779-3.572,33.925-11.432,42.429
			c-2.857-2.767-5.836-4.895-8.93-6.381C283.014,108.629,286.227,97.255,286.707,80.876z M333.504,61.416h-36.08v8.933h36.08V61.416
			z M305.641,114.052V81.194h4.643c4.521,0,6.789,0.429,6.789,1.276c0,0.429-0.123,1.066-0.357,1.914
			c-0.242,1.066-0.357,2.128-0.357,3.19v5.742c8.572-2.554,15.717-6.485,21.432-11.804c3.572,3.19,6.787,6.379,9.646,9.57
			c-5.717,2.552-16.199,6.595-31.436,12.122v4.466c-0.48,3.405,1.305,4.896,5.357,4.467h12.146c5.234,1.066,7.5-2.233,6.787-9.89
			c3.092,1.489,6.904,2.448,11.43,2.871c0.234,11.693-3.455,16.908-11.072,15.631h-25.363
			C308.856,120.537,305.641,118.304,305.641,114.052z"/>
		<path fill="#093052" d="M379.584,74.495v26.159c0,2.98,1.785,5.317,5.357,7.018c2.619,1.491,7.023,2.447,13.219,2.871
			c5.234,0.215,17.504,0,36.793-0.638c-2.145,2.98-3.455,6.484-3.93,10.527c-25.484-0.214-40.488-0.853-45.01-1.914
			c-2.857-1.067-5.838-2.661-8.93-4.785c-0.955-1.063-1.551-1.595-1.785-1.595c-1.195,0-3.695,2.551-7.504,7.656l-1.428,2.233
			c-1.67-1.491-4.287-4.259-7.859-8.295c0.475-0.424,2.021-1.486,4.645-3.19c3.572-2.975,5.832-4.89,6.787-5.742V83.429h-9.645
			v-8.934H379.584z M364.582,55.035l10.357-4.465c0.715,1.49,1.307,2.766,1.787,3.828c2.617,4.895,4.402,8.613,5.357,11.164
			c-1.908,0.639-5.357,2.025-10.359,4.147C369.817,65.244,367.44,60.355,364.582,55.035z M398.873,76.409h-16.074v-8.933h17.146
			V49.613h6.787c3.332,0,5.002,0.318,5.002,0.957c0,0.214-0.123,0.638-0.357,1.276c-0.242,1.065-0.357,2.233-0.357,3.509v12.121
			h19.646v8.933h-20.361c-0.24,0.639-0.357,1.387-0.357,2.233c-0.24,0.852-0.355,1.489-0.355,1.915
			c1.662,1.49,3.447,2.979,5.357,4.465c7.377,6.172,12.977,10.847,16.789,14.036c-4.768,3.619-7.859,6.38-9.287,8.295
			c-5.002-5.527-10.482-11.057-16.434-16.59c-4.525,7.02-9.768,12.762-15.717,17.228c-2.857-3.19-5.838-5.847-8.932-7.975
			C391.606,95.551,397.446,87.684,398.873,76.409z"/>
	</g>
</g>
</svg>
