<?xml version="1.0" encoding="utf-8"?>
<!-- Generator: Adobe Illustrator 16.0.0, SVG Export Plug-In . SVG Version: 6.00 Build 0)  -->
<!DOCTYPE svg PUBLIC "-//W3C//DTD SVG 1.1//EN" "http://www.w3.org/Graphics/SVG/1.1/DTD/svg11.dtd">
<svg version="1.1" id="图层_1" xmlns="http://www.w3.org/2000/svg" xmlns:xlink="http://www.w3.org/1999/xlink" x="0px" y="0px"
	 width="16px" height="16px" viewBox="0 0 16 16" enable-background="new 0 0 16 16" xml:space="preserve">
<g>
	<polygon fill="#083255" points="1.444,11.599 1.444,13.682 2.132,13.682 2.132,12.619 2.163,12.619 3.292,13.682 4.102,13.682 
		2.847,12.531 3.988,11.599 3.213,11.599 2.157,12.437 2.132,12.436 2.132,11.599 	"/>
	<polygon fill="#083255" points="4.369,11.601 4.369,13.68 6.617,13.68 6.617,13.326 5.088,13.326 5.088,12.814 6.454,12.814 
		6.454,12.432 5.095,12.432 5.095,11.961 6.558,11.961 6.558,11.601 	"/>
	<polygon fill="#083255" points="7.127,11.598 7.127,13.684 7.801,13.684 7.801,11.97 9.021,13.684 10.06,13.684 10.06,11.598 
		9.386,11.598 9.386,13.213 8.172,11.598 	"/>
	<rect x="10.583" y="11.598" fill="#083255" width="0.743" height="2.086"/>
	<path fill="#083255" d="M13.151,11.598c0,0,1.44,0.012,1.411,1.042c-0.028,1.032-1.161,1.044-1.161,1.044h-1.551v-2.086H13.151z
		 M12.556,11.961v1.359h0.727c0,0,0.552-0.047,0.575-0.681c0.023-0.633-0.575-0.679-0.575-0.679H12.556z"/>
</g>
<rect x="1" y="10.822" fill="#083255" width="14" height="0.136"/>
<path fill="#093052" d="M6.454,2.315L6.447,2.574C6.181,2.601,5.928,2.878,5.91,2.897C5.892,2.916,5.78,3.145,5.765,3.256
	C5.753,3.348,5.873,3.638,5.873,3.638l0.902,1.309V3.136V2.315c0,0,2.195,0,3.223,0c0.396,0,4.359-0.125,4.359,4.143
	c0,3.162-3.771,3.765-3.771,3.765H6.809V6.807c0,0,0.015,0.011-0.037-0.036C6.732,6.734,6.659,6.777,6.594,6.82
	C6.231,7.061,5.2,9.088,5.2,9.088S5.077,9.376,5.085,9.629c0.009,0.267,0.16,0.387,0.16,0.387h0.73v0.208H1.641v-0.208h0.674
	l2.884-3.551l-2.835-3.9H1.794V2.315H6.454z M8.907,2.953v6.548c0,0,0.358,0.138,0.688,0.146c0.331,0.009,0.671-0.102,0.671-0.102
	c0.217-0.095,1.847-0.58,1.847-3.246c-0.001-2.421-1.259-3.513-2.397-3.513C9.16,2.788,8.907,2.953,8.907,2.953z"/>
</svg>
